<svg version="1.2" xmlns="http://www.w3.org/2000/svg" viewBox="0 0 225 225" width="225" height="225"><defs><clipPath clipPathUnits="userSpaceOnUse" id="cp1"><path d="m-368-158h960v540h-960z"/></clipPath></defs><style>.a{fill:none}.b{fill:#eee}.c{fill:none;stroke:#595959;stroke-linejoin:round}</style><g clip-path="url(#cp1)"><path fill-rule="evenodd" class="a" d="m-368-158h960v540h-960z"/><path fill-rule="evenodd" class="b" d="m5.2 16.4h213.6v191.2h-213.6z"/><path fill-rule="evenodd" class="c" d="m5.2 16.4h213.6v191.2h-213.6z"/><path fill-rule="evenodd" class="b" d="m30.6 146.5c0-4.8 3.9-8.6 8.6-8.6h145.6c2.3 0 4.5 0.9 6.1 2.5 1.6 1.6 2.5 3.8 2.5 6.1v34.5c0 4.7-3.9 8.6-8.6 8.6h-145.6c-4.7 0-8.6-3.9-8.6-8.6z"/><path fill-rule="evenodd" class="c" d="m30.6 146.5c0-4.8 3.9-8.6 8.6-8.6h145.6c2.3 0 4.5 0.9 6.1 2.5 1.6 1.6 2.5 3.8 2.5 6.1v34.5c0 4.7-3.9 8.6-8.6 8.6h-145.6c-4.7 0-8.6-3.9-8.6-8.6z"/><path  d="m54.9 171.4l1.5 0.3q0.2 0.7 0.6 1.1 0.6 0.4 1.7 0.4 1.1 0 1.7-0.4 0.7-0.5 0.9-1.3 0.1-0.5 0.1-2.1-1.1 1.3-2.7 1.3-2 0-3.1-1.5-1.1-1.4-1.1-3.4 0-1.4 0.5-2.6 0.5-1.2 1.5-1.8 0.9-0.6 2.2-0.6 1.7 0 2.8 1.3v-1.1h1.6v8.3q0 2.3-0.5 3.2-0.5 1-1.5 1.5-1 0.6-2.4 0.6-1.7 0-2.8-0.8-1.1-0.8-1-2.4zm1.3-5.8q0 1.9 0.8 2.8 0.7 0.9 1.9 0.9 1.1 0 1.9-0.9 0.7-0.8 0.7-2.7 0-1.8-0.8-2.7-0.8-0.9-1.9-0.9-1.1 0-1.8 0.9-0.8 0.9-0.8 2.6zm9.3 5.1v-9.7h1.5v1.4q0.6-1 1-1.3 0.5-0.3 1.1-0.3 0.8 0 1.7 0.5l-0.6 1.5q-0.6-0.4-1.2-0.4-0.5 0-1 0.4-0.4 0.3-0.6 0.9-0.3 0.8-0.3 1.9v5.1zm12.9-3.2l1.7 0.2q-0.4 1.5-1.5 2.4-1.1 0.8-2.8 0.8-2.1 0-3.3-1.3-1.3-1.3-1.3-3.7 0-2.5 1.3-3.8 1.2-1.3 3.2-1.3 2 0 3.2 1.3 1.2 1.3 1.2 3.7 0 0.1 0 0.4h-7.2q0.1 1.6 0.9 2.5 0.8 0.8 2 0.8 0.9 0 1.6-0.4 0.6-0.5 1-1.6zm-5.4-2.6h5.4q-0.1-1.2-0.6-1.8-0.8-1-2-1-1.2 0-1.9 0.8-0.8 0.7-0.9 2zm15.8 2.6l1.7 0.2q-0.4 1.5-1.5 2.4-1.1 0.8-2.8 0.8-2.1 0-3.4-1.3-1.2-1.3-1.2-3.7 0-2.5 1.3-3.8 1.2-1.3 3.2-1.3 2 0 3.2 1.3 1.2 1.3 1.2 3.7 0 0.1 0 0.4h-7.2q0.1 1.6 0.9 2.5 0.8 0.8 2 0.8 0.9 0 1.6-0.4 0.6-0.5 1-1.6zm-5.4-2.6h5.4q-0.1-1.2-0.6-1.8-0.8-1-2.1-1-1.1 0-1.9 0.8-0.7 0.7-0.8 2zm12.7 4.3l0.2 1.4q-0.6 0.2-1.2 0.2-0.9 0-1.4-0.3-0.5-0.3-0.7-0.7-0.2-0.5-0.2-2v-5.6h-1.2v-1.2h1.2v-2.4l1.7-1v3.4h1.6v1.2h-1.6v5.7q0 0.7 0 0.9 0.1 0.2 0.3 0.3 0.2 0.1 0.6 0.1 0.3 0 0.7 0zm4.7 5.4q-1.3-1.7-2.3-4-0.9-2.3-0.9-4.8 0-2.1 0.7-4.1 0.8-2.3 2.5-4.6h1.2q-1.1 1.9-1.4 2.7-0.6 1.2-0.9 2.6-0.4 1.7-0.4 3.4 0 4.4 2.7 8.8zm3.1-3.9v-9.7h1.5v1.3q0.4-0.7 1.2-1.1 0.7-0.4 1.7-0.4 1.1 0 1.8 0.4 0.6 0.5 0.9 1.2 1.2-1.6 3-1.6 1.5 0 2.2 0.8 0.8 0.8 0.8 2.4v6.7h-1.6v-6.1q0-1-0.2-1.4-0.1-0.5-0.6-0.8-0.4-0.2-1-0.2-1 0-1.6 0.7-0.7 0.6-0.7 2.1v5.7h-1.7v-6.3q0-1.1-0.4-1.7-0.4-0.5-1.3-0.5-0.7 0-1.3 0.3-0.5 0.4-0.8 1.1-0.3 0.7-0.3 2v5.1zm21.9-1.2q-0.9 0.7-1.8 1.1-0.8 0.3-1.8 0.3-1.6 0-2.4-0.8-0.9-0.8-0.9-2 0-0.7 0.3-1.3 0.4-0.6 0.9-0.9 0.5-0.4 1.2-0.6 0.4-0.1 1.4-0.2 2-0.3 3-0.6 0-0.3 0-0.4 0-1-0.5-1.4-0.6-0.6-1.9-0.6-1.1 0-1.7 0.4-0.5 0.4-0.8 1.4l-1.6-0.2q0.2-1 0.7-1.6 0.5-0.7 1.5-1 0.9-0.3 2.2-0.3 1.2 0 2 0.3 0.8 0.2 1.1 0.7 0.4 0.4 0.5 1.1 0.1 0.4 0.1 1.5v2.2q0 2.3 0.1 2.9 0.1 0.6 0.4 1.2h-1.7q-0.2-0.6-0.3-1.2zm-0.1-3.7q-0.9 0.4-2.7 0.6-1 0.2-1.5 0.3-0.4 0.2-0.6 0.6-0.2 0.3-0.2 0.8 0 0.6 0.5 1.1 0.5 0.4 1.4 0.4 1 0 1.7-0.4 0.7-0.4 1.1-1.2 0.3-0.5 0.3-1.6zm3.8 5.7l1.6 0.2q0.1 0.7 0.6 1.1 0.6 0.4 1.7 0.4 1.1 0 1.7-0.4 0.6-0.5 0.9-1.3 0.1-0.5 0.1-2.1-1.1 1.3-2.7 1.3-2 0-3.1-1.5-1.1-1.4-1.1-3.4 0-1.4 0.5-2.6 0.5-1.2 1.5-1.8 0.9-0.6 2.2-0.6 1.7 0 2.8 1.3v-1.1h1.5v8.3q0 2.3-0.4 3.3-0.5 0.9-1.5 1.4-1 0.6-2.4 0.6-1.7 0-2.8-0.8-1.1-0.8-1.1-2.3zm1.4-5.9q0 2 0.8 2.8 0.7 0.9 1.9 0.9 1.1 0 1.8-0.9 0.8-0.8 0.8-2.7 0-1.8-0.8-2.7-0.8-0.9-1.9-0.9-1.1 0-1.8 0.9-0.8 0.9-0.8 2.6zm9 5.9l1.6 0.2q0.1 0.7 0.6 1.1 0.6 0.4 1.6 0.4 1.2 0 1.8-0.4 0.6-0.5 0.8-1.3 0.2-0.5 0.1-2.1-1 1.3-2.6 1.3-2 0-3.1-1.5-1.1-1.4-1.1-3.4 0-1.4 0.5-2.6 0.5-1.2 1.4-1.8 1-0.6 2.3-0.6 1.7 0 2.8 1.3v-1.1h1.5v8.3q0 2.3-0.4 3.3-0.5 0.9-1.5 1.4-1 0.6-2.5 0.6-1.7 0-2.8-0.8-1-0.8-1-2.3zm1.4-5.9q0 2 0.7 2.8 0.8 0.9 1.9 0.9 1.2 0 1.9-0.9 0.8-0.8 0.8-2.7 0-1.8-0.8-2.7-0.8-0.9-1.9-0.9-1.1 0-1.9 0.9-0.7 0.9-0.7 2.6zm9.3-6.4v-1.9h1.6v1.9zm0 11.5v-9.7h1.7v9.7zm10.8-3.1l1.6 0.2q-0.4 1.4-1.4 2.3-1.1 0.8-2.8 0.8-2.1 0-3.4-1.3-1.2-1.3-1.2-3.7 0-2.4 1.2-3.8 1.3-1.3 3.3-1.3 1.9 0 3.2 1.3 1.2 1.3 1.2 3.7 0 0.2 0 0.4h-7.2q0.1 1.6 0.9 2.5 0.8 0.8 2 0.8 0.9 0 1.5-0.4 0.7-0.5 1.1-1.5zm-5.4-2.7h5.4q-0.1-1.2-0.7-1.8-0.7-1-2-1-1.1 0-1.9 0.8-0.8 0.7-0.8 2zm10.2 9.7h-1.2q2.7-4.4 2.7-8.8 0-1.7-0.4-3.4-0.3-1.3-0.8-2.6-0.4-0.8-1.5-2.7h1.2q1.7 2.3 2.5 4.6 0.7 2 0.7 4.1 0 2.5-0.9 4.8-1 2.3-2.3 4z"/><path fill-rule="evenodd" class="b" d="m30.6 67.3c0-4.7 3.9-8.6 8.6-8.6h145.6c2.3 0 4.5 0.9 6.1 2.5 1.6 1.7 2.5 3.8 2.5 6.1v34.5c0 4.8-3.9 8.6-8.6 8.6h-145.6c-4.7 0-8.6-3.8-8.6-8.6z"/><path fill-rule="evenodd" class="c" d="m30.6 67.3c0-4.7 3.9-8.6 8.6-8.6h145.6c2.3 0 4.5 0.9 6.1 2.5 1.6 1.7 2.5 3.8 2.5 6.1v34.5c0 4.8-3.9 8.6-8.6 8.6h-145.6c-4.7 0-8.6-3.8-8.6-8.6z"/><path  d="m49.7 92.3l1.6 0.2q0.1 0.8 0.5 1.1 0.6 0.5 1.7 0.5 1.1 0 1.7-0.5 0.7-0.5 0.9-1.3 0.1-0.5 0.1-2.1-1.1 1.3-2.7 1.3-2 0-3.1-1.4-1.1-1.5-1.1-3.5 0-1.4 0.5-2.6 0.6-1.1 1.5-1.8 0.9-0.6 2.2-0.6 1.7 0 2.9 1.4v-1.2h1.5v8.4q0 2.2-0.5 3.2-0.5 0.9-1.5 1.5-0.9 0.5-2.4 0.5-1.7 0-2.8-0.8-1.1-0.7-1-2.3zm1.3-5.8q0 1.9 0.8 2.8 0.7 0.8 1.9 0.8 1.1 0 1.9-0.8 0.7-0.9 0.7-2.8 0-1.7-0.8-2.6-0.7-0.9-1.9-0.9-1 0-1.8 0.9-0.8 0.8-0.8 2.6zm9.3 5v-9.7h1.5v1.5q0.6-1 1-1.4 0.5-0.3 1.1-0.3 0.8 0 1.7 0.5l-0.6 1.5q-0.6-0.3-1.2-0.3-0.5 0-0.9 0.3-0.5 0.3-0.7 0.9-0.2 0.9-0.2 1.9v5.1zm12.8-3.1l1.7 0.2q-0.4 1.5-1.5 2.3-1.1 0.8-2.7 0.8-2.2 0-3.4-1.3-1.3-1.3-1.3-3.7 0-2.4 1.3-3.8 1.3-1.3 3.3-1.3 1.9 0 3.1 1.3 1.2 1.3 1.2 3.7 0 0.2 0 0.5h-7.2q0.1 1.6 0.9 2.4 0.8 0.9 2.1 0.9 0.9 0 1.5-0.5 0.6-0.5 1-1.5zm-5.4-2.7h5.4q-0.1-1.2-0.6-1.8-0.8-1-2-1-1.2 0-1.9 0.8-0.8 0.8-0.9 2zm15.8 2.7l1.7 0.2q-0.4 1.5-1.5 2.3-1.1 0.8-2.8 0.8-2.1 0-3.3-1.3-1.3-1.3-1.3-3.7 0-2.4 1.3-3.8 1.2-1.3 3.2-1.3 2 0 3.2 1.3 1.2 1.3 1.2 3.7 0 0.2 0 0.5h-7.2q0.1 1.6 0.9 2.4 0.8 0.9 2 0.9 0.9 0 1.6-0.5 0.6-0.5 1-1.5zm-5.4-2.7h5.4q-0.1-1.2-0.6-1.8-0.8-1-2-1-1.2 0-2 0.8-0.7 0.8-0.8 2zm12.7 4.3l0.3 1.5q-0.7 0.1-1.3 0.1-0.9 0-1.4-0.3-0.5-0.2-0.7-0.7-0.2-0.5-0.2-1.9v-5.6h-1.2v-1.3h1.2v-2.4l1.7-1v3.4h1.6v1.3h-1.6v5.7q0 0.6 0 0.8 0.1 0.3 0.3 0.4 0.2 0.1 0.6 0.1 0.3 0 0.7-0.1zm9.8-0.1v1.6h-8.8q-0.1-0.6 0.1-1.1 0.4-1 1.1-1.8 0.8-0.9 2.2-2 2.1-1.8 2.9-2.9 0.8-1 0.8-1.9 0-1-0.7-1.7-0.7-0.7-1.8-0.7-1.2 0-1.9 0.8-0.7 0.7-0.7 1.9l-1.7-0.2q0.1-1.8 1.3-2.8 1.1-1 3-1 1.9 0 3 1 1.2 1.1 1.2 2.7 0 0.8-0.4 1.6-0.3 0.7-1.1 1.6-0.7 0.9-2.5 2.4-1.5 1.2-1.9 1.6-0.4 0.5-0.7 0.9zm5.4 5.5q-1.4-1.7-2.3-4-1-2.3-1-4.8 0-2.1 0.7-4.1 0.9-2.3 2.6-4.6h1.2q-1.1 1.9-1.5 2.7-0.5 1.3-0.9 2.6-0.4 1.7-0.4 3.5 0 4.3 2.8 8.7zm3-3.9v-9.7h1.5v1.4q0.5-0.7 1.2-1.2 0.8-0.4 1.7-0.4 1.1 0 1.8 0.5 0.7 0.4 1 1.2 1.1-1.7 2.9-1.7 1.5 0 2.3 0.8 0.7 0.8 0.7 2.5v6.6h-1.6v-6.1q0-1-0.1-1.4-0.2-0.4-0.6-0.7-0.4-0.3-1-0.3-1 0-1.7 0.7-0.7 0.7-0.7 2.2v5.6h-1.6v-6.3q0-1.1-0.4-1.6-0.4-0.6-1.3-0.6-0.7 0-1.3 0.4-0.6 0.3-0.9 1-0.2 0.7-0.2 2.1v5zm21.8-1.2q-0.9 0.8-1.7 1.1-0.9 0.3-1.8 0.3-1.6 0-2.5-0.8-0.8-0.8-0.8-2 0-0.7 0.3-1.3 0.3-0.5 0.8-0.9 0.6-0.3 1.2-0.5 0.5-0.2 1.5-0.3 2-0.2 2.9-0.5 0-0.4 0-0.5 0-1-0.5-1.4-0.6-0.5-1.8-0.5-1.2 0-1.7 0.4-0.6 0.4-0.9 1.4l-1.6-0.2q0.3-1 0.8-1.7 0.5-0.6 1.4-1 1-0.3 2.2-0.3 1.2 0 2 0.3 0.8 0.3 1.2 0.7 0.3 0.5 0.5 1.1 0 0.5 0 1.6v2.1q0 2.3 0.2 2.9 0.1 0.6 0.4 1.2h-1.7q-0.3-0.5-0.4-1.2zm-0.1-3.7q-0.9 0.4-2.7 0.7-1 0.1-1.4 0.3-0.4 0.2-0.7 0.5-0.2 0.4-0.2 0.8 0 0.7 0.5 1.1 0.5 0.4 1.5 0.4 0.9 0 1.6-0.4 0.8-0.4 1.1-1.1 0.3-0.6 0.3-1.7zm3.9 5.7l1.6 0.2q0.1 0.8 0.5 1.1 0.6 0.5 1.7 0.5 1.2 0 1.8-0.5 0.6-0.4 0.8-1.3 0.1-0.5 0.1-2.1-1 1.3-2.7 1.3-2 0-3.1-1.4-1-1.5-1-3.5 0-1.4 0.5-2.6 0.5-1.1 1.4-1.7 1-0.7 2.3-0.7 1.7 0 2.8 1.4v-1.2h1.5v8.4q0 2.3-0.5 3.2-0.4 0.9-1.4 1.5-1 0.5-2.5 0.5-1.7 0-2.8-0.8-1-0.7-1-2.3zm1.3-5.8q0 1.9 0.8 2.8 0.8 0.8 1.9 0.8 1.1 0 1.9-0.8 0.8-0.9 0.8-2.8 0-1.7-0.8-2.6-0.8-0.9-1.9-0.9-1.1 0-1.9 0.9-0.8 0.8-0.8 2.6zm9.1 5.8l1.6 0.2q0.1 0.8 0.5 1.1 0.6 0.5 1.7 0.5 1.1 0 1.7-0.5 0.7-0.4 0.9-1.3 0.1-0.5 0.1-2.1-1.1 1.3-2.7 1.3-2 0-3.1-1.4-1.1-1.5-1.1-3.5 0-1.4 0.5-2.6 0.5-1.1 1.5-1.7 0.9-0.7 2.2-0.7 1.7 0 2.8 1.4v-1.2h1.6v8.4q0 2.3-0.5 3.2-0.5 0.9-1.5 1.5-0.9 0.5-2.4 0.5-1.7 0-2.8-0.8-1.1-0.7-1-2.3zm1.3-5.8q0 1.9 0.8 2.8 0.7 0.8 1.9 0.8 1.1 0 1.9-0.8 0.7-0.9 0.7-2.8 0-1.7-0.8-2.6-0.7-0.9-1.9-0.9-1.1 0-1.8 0.9-0.8 0.8-0.8 2.6zm9.3-6.5v-1.9h1.7v1.9zm0 11.5v-9.7h1.6v9.7zm10.8-3.1l1.7 0.2q-0.4 1.5-1.5 2.3-1.1 0.8-2.8 0.8-2.1 0-3.3-1.3-1.3-1.3-1.3-3.6 0-2.5 1.3-3.8 1.2-1.4 3.2-1.4 2 0 3.2 1.3 1.2 1.4 1.2 3.7 0 0.2 0 0.5h-7.2q0.1 1.6 0.9 2.4 0.8 0.9 2 0.9 0.9 0 1.6-0.5 0.6-0.5 1-1.5zm-5.4-2.7h5.4q-0.1-1.2-0.6-1.8-0.8-0.9-2-0.9-1.2 0-1.9 0.7-0.8 0.8-0.9 2zm10.2 9.7h-1.2q2.8-4.4 2.8-8.7 0-1.7-0.4-3.4-0.3-1.4-0.9-2.6-0.4-0.9-1.5-2.8h1.2q1.7 2.3 2.6 4.6 0.6 2 0.6 4.2 0 2.4-0.9 4.7-0.9 2.3-2.3 4z"/></g></svg>